<?xml version="1.0" encoding="UTF-8" standalone="no"?>
<svg width="87px" height="70px" viewBox="0 0 87 70" version="1.1" xmlns="http://www.w3.org/2000/svg" xmlns:xlink="http://www.w3.org/1999/xlink">
    <!-- Generator: Sketch 40.3 (33839) - http://www.bohemiancoding.com/sketch -->
    <title>Fill 3</title>
    <desc>Created with Sketch.</desc>
    <defs></defs>
    <g id="Symbols" stroke="none" stroke-width="1" fill="none" fill-rule="evenodd">
        <g id="cta" fill="#FFFFFF">
            <g id="Fill-3">
                <path d="M27.0876276,70 C59.5915404,70 77.3662995,43.0715432 77.3662995,19.7213281 C77.3662995,18.956137 77.3507959,18.1943911 77.3156543,17.4367796 C80.7657325,14.9427596 83.7651714,11.8306608 86.1313725,8.28721614 C82.9648387,9.69356919 79.5574816,10.6417033 75.9830297,11.0689149 C79.6315546,8.88186713 82.4325468,5.42007501 83.7534576,1.29403774 C80.3385209,3.31812499 76.5580427,4.79028241 72.5329514,5.58303556 C69.3085373,2.14846096 64.7160126,0 59.6342616,0 C49.8745435,0 41.9604485,7.91409503 41.9604485,17.6700233 C41.9604485,19.057083 42.1158295,20.4052112 42.4186674,21.6992489 C27.7325793,20.9609308 14.7095158,13.928821 5.99474353,3.23647245 C4.47573064,5.84728662 3.60166947,8.88186713 3.60166947,12.1179951 C3.60166947,18.2491707 6.72134778,23.6613216 11.4651193,26.8275109 C8.56697083,26.7382788 5.84349684,25.9417358 3.46179212,24.6166908 C3.45765782,24.6904192 3.45765782,24.7644922 3.45765782,24.8420105 C3.45765782,33.4014017 9.54990206,40.5461713 17.6348817,42.1664747 C16.1510104,42.5702586 14.5889319,42.7879987 12.9765526,42.7879987 C11.8382404,42.7879987 10.7309354,42.6753389 9.65463781,42.4693126 C11.9043893,49.4900531 18.4276349,54.5990215 26.1629212,54.7430332 C20.1137426,59.4826704 12.4949059,62.3070903 4.2156139,62.3070903 C2.78962289,62.3070903 1.38326984,62.2257823 0,62.0624772 C7.82107315,67.0742895 17.1067242,70 27.0876276,70"></path>
            </g>
        </g>
    </g>
</svg>