<?xml version="1.0" encoding="UTF-8" standalone="no"?>
<svg width="90px" height="35px" viewBox="0 0 90 35" version="1.1" xmlns="http://www.w3.org/2000/svg" xmlns:xlink="http://www.w3.org/1999/xlink">
    <!-- Generator: Sketch 40.3 (33839) - http://www.bohemiancoding.com/sketch -->
    <title>Fooji Black + Text</title>
    <desc>Created with Sketch.</desc>
    <defs></defs>
    <g id="Symbols" stroke="none" stroke-width="1" fill="none" fill-rule="evenodd">
        <g id="footer-logo">
            <g id="Fooji-Black-+-Text">
                <path d="M3.43784263,13.9643373 L0.00458768515,13.9643373 L0.00458768515,9.80281611 L3.43784263,9.80281611 L3.43784263,6.82039262 C3.43784263,5.89560552 3.51876029,5.02285079 3.68059803,4.20210223 C3.84243577,3.38135368 4.15454674,2.6588746 4.61694029,2.0346433 C5.07933384,1.41041201 5.7440146,0.919126233 6.6110025,0.560771232 C7.47799041,0.20241623 8.61661745,0.0232414172 10.0269178,0.0232414172 C10.5586704,0.0232414172 11.0788553,0.0463607479 11.5874882,0.0926001029 C12.0961211,0.138839458 12.5931867,0.219757115 13.0786999,0.335355503 L12.8359445,4.73963205 C12.5353887,4.62403366 12.2579568,4.53733617 12.0036403,4.47953698 C11.7493239,4.42173778 11.4603322,4.39283862 11.1366567,4.39283862 C10.3043484,4.39283862 9.68012643,4.57201343 9.26397223,4.93036843 C8.84781804,5.28872344 8.63974406,6.02276219 8.63974406,7.13250671 L8.63974406,9.80281611 L12.4891511,9.80281611 L12.4891511,13.9643373 L8.63974406,13.9643373 L8.63974406,26.6569767 L3.43784263,26.6569767 L3.43784263,13.9643373 Z" id="f" fill="#000000"></path>
                <path d="M80.439075,27.9054331 C80.439075,28.9920579 80.335038,29.9688497 80.1269609,30.8358376 C79.9188838,31.7028255 79.5720939,32.4426441 79.0865806,33.0553155 C78.6010674,33.667987 77.959506,34.1419332 77.1618771,34.4771686 C76.3642482,34.8124039 75.3758969,34.980019 74.1967933,34.980019 C73.8037588,34.980019 73.3991705,34.9626795 72.9830163,34.928 C72.5668621,34.8933205 72.1622738,34.8181827 71.7692393,34.7025843 L72.046674,30.0902317 C72.4628282,30.2983088 72.9136552,30.4023458 73.3991684,30.4023458 C73.8384423,30.4023458 74.1852322,30.2867491 74.4395487,30.0555523 C74.6938651,29.8243556 74.8788198,29.5353639 74.9944182,29.1885688 C75.1100166,28.8417736 75.1793746,28.4718643 75.2024942,28.0788298 C75.2256139,27.6857953 75.2371736,27.3274457 75.2371736,27.0037702 L75.2371736,9.80281611 L80.439075,9.80281611 L80.439075,27.9054331 Z M74.8210215,4.49687665 C74.8210215,3.66456826 75.1157929,2.95364884 75.7053447,2.36409706 C76.2948965,1.77454528 77.0058159,1.47977382 77.8381243,1.47977382 C78.6704327,1.47977382 79.3813521,1.77454528 79.9709039,2.36409706 C80.5604557,2.95364884 80.8552271,3.66456826 80.8552271,4.49687665 C80.8552271,5.32918504 80.5604557,6.04010446 79.9709039,6.62965623 C79.3813521,7.21920801 78.6704327,7.51397948 77.8381243,7.51397948 C77.0058159,7.51397948 76.2948965,7.21920801 75.7053447,6.62965623 C75.1157929,6.04010446 74.8210215,5.32918504 74.8210215,4.49687665 L74.8210215,4.49687665 Z M84.2538027,9.80281611 L89.4557042,9.80281611 L89.4557042,26.6569767 L84.2538027,26.6569767 L84.2538027,9.80281611 Z M83.8376506,4.49687665 C83.8376506,3.66456826 84.1324221,2.95364884 84.7219739,2.36409706 C85.3115256,1.77454528 86.0224451,1.47977382 86.8547534,1.47977382 C87.6870618,1.47977382 88.3979813,1.77454528 88.987533,2.36409706 C89.5770848,2.95364884 89.8718563,3.66456826 89.8718563,4.49687665 C89.8718563,5.32918504 89.5770848,6.04010446 88.987533,6.62965623 C88.3979813,7.21920801 87.6870618,7.51397948 86.8547534,7.51397948 C86.0224451,7.51397948 85.3115256,7.21920801 84.7219739,6.62965623 C84.1324221,6.04010446 83.8376506,5.32918504 83.8376506,4.49687665 L83.8376506,4.49687665 Z" id="ji" fill="#000000"></path>
                <g id="1f60f" transform="translate(14.364429, 1.448184)">
                    <g id="Group">
                        <ellipse id="Oval" fill="#FFD766" cx="13.8742072" cy="13.9025632" rx="13.8742072" ry="13.9025632"></ellipse>
                        <path d="M9.86271142,20.2129367 C10.893565,20.5271346 11.8434857,20.639282 12.7892442,20.6365014 C13.7303779,20.6355746 14.6483879,20.5099881 15.5525238,20.2935715 C16.4520349,20.071594 17.3274974,19.7629571 18.1664244,19.3342947 C19.0062764,18.9023884 19.8012685,18.3703836 20.5772992,17.6210355 C20.4302326,18.7082159 19.7582585,19.6971516 18.9197939,20.4293533 C18.0743922,21.1680428 17.0347516,21.6764132 15.9479387,21.9391716 C14.8602008,22.2000764 13.7058668,22.2232473 12.6167415,21.9526108 C11.5373282,21.6842913 10.4907505,21.1124325 9.86271142,20.2134001" id="Shape" fill="#000000"></path>
                        <g transform="translate(3.237315, 5.908589)" id="Shape" fill="#000000">
                            <path d="M20.4413319,2.73417077 C18.9456924,1.46811068 16.9621432,0.935642506 15.0345534,1.28227975 C14.7663187,1.33464607 14.5304572,0.346173824 14.8555761,0.283148871 C17.0805365,-0.116781531 19.3683932,0.496784926 21.0952696,1.95840774 C21.3454678,2.17575115 20.6471327,2.91351383 20.4413319,2.73417077"></path>
                            <path d="M6.23738108,1.21276693 C4.30979123,0.866129689 2.32716702,1.39813444 0.830602537,2.66465795 C0.625726744,2.84492786 -0.0735332981,2.10623833 0.177589852,1.88889492 C1.90354123,0.428198948 4.19186047,-0.186757766 6.4172833,0.213636055 C6.74240222,0.27619759 6.50561575,1.26513325 6.23738108,1.21276693"></path>
                        </g>
                        <g transform="translate(3.699789, 10.658632)" id="Shape" fill="#000000">
                            <path d="M19.8729519,0.973179426 C18.4952431,-0.628859277 14.1146934,-0.0648786284 12.8156052,2.12338482 C12.7212606,2.28650823 12.9700714,2.51914446 13.273454,2.70404855 C14.1526163,2.08677474 15.1820825,1.74199117 16.2291226,1.66830759 C16.2337474,2.82500085 17.1452828,3.76249703 18.2723309,3.76249703 C19.9025502,3.76203361 20.6804308,1.91252928 19.8729519,0.972716007"></path>
                            <path d="M7.23169926,0.973179426 C5.85399049,-0.628395858 1.47390328,-0.0653420472 0.174352537,2.12384824 C0.0800079281,2.28650823 0.32881871,2.51914446 0.632663848,2.70404855 C1.51182611,2.08723816 2.54082981,1.74199117 3.58833245,1.66830759 C3.59249471,2.82453743 4.5044926,3.76249703 5.63107822,3.76249703 C7.26129757,3.76203361 8.03964059,1.91252928 7.23169926,0.972716007"></path>
                        </g>
                    </g>
                </g>
                <g id="1f60d-(1)" transform="translate(44.193975, 2.143312)">
                    <g id="Group">
                        <ellipse id="Oval" fill="#FFD766" cx="13.527352" cy="13.5545507" rx="13.4266521" ry="13.4540935"></ellipse>
                        <path d="M13.5282471,22.2997114 C8.74433097,22.2997114 6.36736599,18.9186977 6.36736599,16.0211345 L13.5282471,16.0211345 L20.6882331,16.0211345 C20.6882331,18.9186977 18.3099255,22.2997114 13.5282471,22.2997114 Z" id="Shape" fill="#000000"></path>
                        <polygon id="Shape" fill="#FFFFFF" points="6.77822154 16.0211345 20.2764825 16.0211345 20.2764825 18.5325653 6.77822154 18.5325653"></polygon>
                        <path d="M13.527352,22.7486297 C8.58634403,22.7486297 5.91891581,19.2824067 5.91891581,16.021583 L5.91891581,15.5731132 L21.1348931,15.5731132 L21.1348931,16.021583 C21.1348931,19.2828552 18.4688075,22.7486297 13.527352,22.7486297 M6.83416593,16.4700527 C7.06823723,19.1563867 9.39731382,21.8516901 13.527352,21.8516901 C17.6569426,21.8516901 19.9864668,19.1563867 20.2205381,16.4700527 L6.83416593,16.4700527" id="Shape" fill="#000000"></path>
                        <g transform="translate(0.000000, 0.100906)" id="Shape" fill="#E2144F">
                            <path d="M24.8885375,2.54147825 C23.7007263,2.21499225 22.6140626,2.68274623 21.5596229,3.75369207 C20.9688502,2.12574677 20.065684,0.916672234 18.6415638,0.296886995 C17.1829818,-0.341733974 15.7651274,0.0879000772 14.8709123,1.22118322 C13.941788,2.3997618 13.5721075,4.21561595 14.5665749,6.59116038 C15.4983845,8.81512203 19.6740733,13.3226918 19.7949132,13.4540935 C19.9573757,13.3527393 24.6079204,10.4403765 25.7469481,9.01020638 C26.8613602,7.61098066 27.0940889,6.21758505 26.8859758,5.03183095 C26.6787578,3.84114368 25.9769914,2.83881372 24.8885375,2.54147825 Z"></path>
                            <path d="M12.1846868,1.22118322 C11.2913669,0.088348547 9.8726173,-0.341285504 8.41358777,0.296438526 C6.98857243,0.916223764 6.08585385,2.1252983 5.49418605,3.7532436 C4.44019386,2.68274623 3.35353014,2.21499225 2.16527143,2.54102978 C1.07771261,2.83836525 0.375051149,3.84069521 0.167833151,5.03138248 C-0.0375946259,6.21713658 0.19334379,7.6105322 1.30686081,9.01020638 C2.44678357,10.4403765 7.09822342,13.3527393 7.26068591,13.4540935 C7.38063067,13.3235887 11.5572146,8.81512203 12.4890242,6.59116038 C13.4834916,4.21561595 13.1138111,2.3997618 12.1846868,1.22118322"></path>
                        </g>
                    </g>
                </g>
            </g>
        </g>
    </g>
</svg>