<?xml version="1.0" encoding="UTF-8" standalone="no"?>
<svg width="78px" height="30px" viewBox="0 0 78 30" version="1.1" xmlns="http://www.w3.org/2000/svg" xmlns:xlink="http://www.w3.org/1999/xlink">
    <!-- Generator: Sketch 40.3 (33839) - http://www.bohemiancoding.com/sketch -->
    <title>Fooji White + Text</title>
    <desc>Created with Sketch.</desc>
    <defs></defs>
    <g id="Symbols" stroke="none" stroke-width="1" fill="none" fill-rule="evenodd">
        <g id="collab" transform="translate(-122.000000, -19.000000)">
            <g id="right">
                <g transform="translate(101.000000, 0.000000)">
                    <g id="Fooji-White-+-Text" transform="translate(21.000000, 19.000000)">
                        <path d="M2.94727801,11.9674947 L0.0039640592,11.9674947 L0.0039640592,8.39984144 L2.94727801,8.39984144 L2.94727801,5.84302326 C2.94727801,5.05020745 3.01664835,4.30199876 3.15539112,3.59837474 C3.29413389,2.89475071 3.56170521,2.27537265 3.95811311,1.74022199 C4.35452101,1.20507132 4.92434882,0.783894242 5.66761364,0.476678118 C6.41087845,0.169461995 7.38701827,0.0158562368 8.59606237,0.0158562368 C9.05193145,0.0158562368 9.49788365,0.0356763346 9.93393235,0.0753171247 C10.369981,0.114957915 10.7961131,0.184328257 11.2123414,0.283430233 L11.0042283,4.05919662 C10.7465632,3.96009464 10.508722,3.88576928 10.2906977,3.83621829 C10.0726733,3.7866673 9.82492211,3.76189218 9.54743658,3.76189218 C8.83390235,3.76189218 8.29875971,3.91549794 7.9419926,4.22271406 C7.58522549,4.52993018 7.40684461,5.15921829 7.40684461,6.11059725 L7.40684461,8.39984144 L10.7069239,8.39984144 L10.7069239,11.9674947 L7.40684461,11.9674947 L7.40684461,22.8488372 L2.94727801,22.8488372 L2.94727801,11.9674947 Z" id="f" fill="#FFFFFF"></path>
                        <path d="M68.9488636,23.9191332 C68.9488636,24.8506918 68.8596732,25.6880909 68.6812896,26.4313557 C68.5029061,27.1746205 68.2056046,27.8088637 67.7893763,28.3341041 C67.373148,28.8593446 66.8231403,29.2656566 66.1393367,29.5530523 C65.4555331,29.8404481 64.6082239,29.9841438 63.5973837,29.9841438 C63.260437,29.9841438 62.9135853,29.9692787 62.5568182,29.9395481 C62.2000511,29.9098175 61.8531994,29.8454022 61.5162526,29.7463002 L61.7540962,25.7921512 C62.1108633,25.9705347 62.4973552,26.0597252 62.9135835,26.0597252 C63.290171,26.0597252 63.5874725,25.9606247 63.8054968,25.7624207 C64.0235212,25.5642168 64.182082,25.3164655 64.2811839,25.0191596 C64.3802859,24.7218537 64.4397462,24.4047321 64.4595666,24.0677854 C64.479387,23.7308387 64.489297,23.4236272 64.489297,23.1461416 L64.489297,8.39984144 L68.9488636,8.39984144 L68.9488636,23.9191332 Z M64.1325317,3.85108351 C64.1325317,3.13754929 64.385238,2.52808128 64.890658,2.02266121 C65.3960781,1.51724113 66.0055461,1.26453488 66.7190803,1.26453488 C67.4326146,1.26453488 68.0420826,1.51724113 68.5475026,2.02266121 C69.0529227,2.52808128 69.305629,3.13754929 69.305629,3.85108351 C69.305629,4.56461773 69.0529227,5.17408574 68.5475026,5.67950581 C68.0420826,6.18492589 67.4326146,6.43763214 66.7190803,6.43763214 C66.0055461,6.43763214 65.3960781,6.18492589 64.890658,5.67950581 C64.385238,5.17408574 64.1325317,4.56461773 64.1325317,3.85108351 L64.1325317,3.85108351 Z M72.2192125,8.39984144 L76.6787791,8.39984144 L76.6787791,22.8488372 L72.2192125,22.8488372 L72.2192125,8.39984144 Z M71.8624471,3.85108351 C71.8624471,3.13754929 72.1151534,2.52808128 72.6205735,2.02266121 C73.1259935,1.51724113 73.7354615,1.26453488 74.4489958,1.26453488 C75.16253,1.26453488 75.771998,1.51724113 76.2774181,2.02266121 C76.7828382,2.52808128 77.0355444,3.13754929 77.0355444,3.85108351 C77.0355444,4.56461773 76.7828382,5.17408574 76.2774181,5.67950581 C75.771998,6.18492589 75.16253,6.43763214 74.4489958,6.43763214 C73.7354615,6.43763214 73.1259935,6.18492589 72.6205735,5.67950581 C72.1151534,5.17408574 71.8624471,4.56461773 71.8624471,3.85108351 L71.8624471,3.85108351 Z" id="ji" fill="#FFFFFF"></path>
                        <g id="1f60f" transform="translate(12.312368, 1.235234)">
                            <g id="Group">
                                <ellipse id="Oval" fill="#FFD766" cx="11.8921776" cy="11.907496" rx="11.8921776" ry="11.907496"></ellipse>
                                <path d="M8.45375264,17.3123084 C9.33734144,17.5814178 10.1515592,17.6774716 10.9622093,17.6750901 C11.7688953,17.6742963 12.5557611,17.5667319 13.3307347,17.3813719 C14.1017442,17.1912489 14.8521406,16.9269025 15.5712209,16.5597547 C16.2910941,16.1898285 16.9725159,15.7341683 17.637685,15.0923542 C17.5116279,16.0235204 16.9356501,16.8705403 16.2169662,17.4976684 C15.4923362,18.1303534 14.6012156,18.5657708 13.6696617,18.7908225 C12.737315,19.0142865 11.7478858,19.0341323 10.8143499,18.8023331 C9.88913848,18.5725184 8.99207188,18.0827234 8.45375264,17.3127053" id="Shape" fill="#000000"></path>
                                <g transform="translate(2.774841, 5.060686)" id="Shape" fill="#000000">
                                    <path d="M17.5211416,2.34180754 C16.2391649,1.25743158 14.5389799,0.80137448 12.88676,1.09826805 C12.6568446,1.14311961 12.4546776,0.29649665 12.733351,0.242516001 C14.6404598,-0.100022966 16.6014799,0.425494523 18.0816596,1.67736927 C18.2961152,1.86352312 17.6975423,2.49541424 17.5211416,2.34180754"></path>
                                    <path d="M5.34632664,1.03873057 C3.69410677,0.741837 1.99471459,1.19749718 0.711945032,2.28227006 C0.536337209,2.43667059 -0.0630285412,1.80398564 0.152219873,1.61783179 C1.63160677,0.366750876 3.59302326,-0.159957363 5.50052854,0.182978522 C5.7792019,0.236562253 5.57624207,1.08358213 5.34632664,1.03873057"></path>
                                </g>
                                <g transform="translate(3.171247, 9.129080)" id="Shape" fill="#000000">
                                    <path d="M17.0339588,0.833524719 C15.8530655,-0.538615735 12.0983087,-0.0555683146 10.9848044,1.81867155 C10.9039376,1.95838617 11.117204,2.15763827 11.3772463,2.31600797 C12.130814,1.78731515 13.0132135,1.49200925 13.9106765,1.42889952 C13.9146406,2.41960318 14.6959567,3.22256533 15.6619979,3.22256533 C17.0593288,3.22216841 17.7260835,1.63807453 17.0339588,0.833127802"></path>
                                    <path d="M6.19859937,0.833524719 C5.01770613,-0.538218818 1.26334567,-0.0559652311 0.149445032,1.81906847 C0.0685782241,1.95838617 0.281844609,2.15763827 0.542283298,2.31600797 C1.29585095,1.78771206 2.17785412,1.49200925 3.07571353,1.42889952 C3.07928118,2.41920627 3.86099366,3.22256533 4.82663848,3.22256533 C6.22396934,3.22216841 6.89112051,1.63807453 6.19859937,0.833127802"></path>
                                </g>
                            </g>
                        </g>
                        <g id="1f60d-(1)" transform="translate(37.880550, 1.830609)">
                            <g id="Group">
                                <ellipse id="Oval" fill="#FFD766" cx="11.5948732" cy="11.6094245" rx="11.508559" ry="11.5233832"></ellipse>
                                <path d="M11.5956404,19.0996236 C7.49514083,19.0996236 5.45774228,16.2037974 5.45774228,13.7220447 L11.5956404,13.7220447 L17.7327713,13.7220447 C17.7327713,16.2037974 15.6942219,19.0996236 11.5956404,19.0996236 Z" id="Shape" fill="#000000"></path>
                                <polygon id="Shape" fill="#FFFFFF" points="5.80990418 13.7220447 17.3798421 13.7220447 17.3798421 15.8730763 5.80990418 15.8730763"></polygon>
                                <path d="M11.5948732,19.4841204 C7.35972345,19.4841204 5.07335641,16.5153128 5.07335641,13.7224288 L5.07335641,13.3383161 L18.1156227,13.3383161 L18.1156227,13.7224288 C18.1156227,16.5156969 15.8304065,19.4841204 11.5948732,19.4841204 M5.85785651,14.1065416 C6.05848905,16.4073771 8.05484041,18.7158949 11.5948732,18.7158949 C15.1345223,18.7158949 17.1312572,16.4073771 17.3318898,14.1065416 L5.85785651,14.1065416" id="Shape" fill="#000000"></path>
                                <g transform="translate(0.000000, 0.086425)" id="Shape" fill="#E2144F">
                                    <path d="M21.3330321,2.17676709 C20.3149083,1.89713299 19.3834822,2.29776261 18.4796767,3.21502391 C17.9733001,1.82069455 17.1991577,0.785126509 15.9784833,0.254282656 C14.7282701,-0.292693933 13.5129663,0.0752861036 12.7464963,1.04593908 C11.950104,2.05538745 11.633235,3.61066007 12.4856356,5.64530543 C13.2843296,7.55012068 16.8634914,11.4108382 16.9670685,11.5233832 C17.106322,11.4365737 21.0925032,8.94214537 22.0688127,7.71720973 C23.0240231,6.51877788 23.2235047,5.32533949 23.0451221,4.30974532 C22.8675066,3.28992591 22.2659926,2.43143386 21.3330321,2.17676709 Z"></path>
                                    <path d="M10.4440173,1.04593908 C9.67831446,0.0756702164 8.4622434,-0.292309821 7.21164666,0.253898543 C5.99020494,0.784742396 5.21644616,1.82031043 4.70930233,3.2146398 C3.80588045,2.29776261 2.87445441,1.89713299 1.85594694,2.17638298 C0.923753666,2.43104974 0.321472414,3.28954179 0.143856987,4.30936121 C-0.0322239651,5.32495538 0.165723249,6.51839377 1.12016641,7.71720973 C2.09724306,8.94214537 6.0841915,11.4365737 6.22344507,11.5233832 C6.32625486,11.4116064 9.90618393,7.55012068 10.7048779,5.64530543 C11.5572785,3.61066007 11.2404095,2.05538745 10.4440173,1.04593908"></path>
                                </g>
                            </g>
                        </g>
                    </g>
                </g>
            </g>
        </g>
    </g>
</svg>