<?xml version="1.0" encoding="UTF-8" standalone="no"?>
<svg width="61px" height="60px" viewBox="0 0 61 60" version="1.1" xmlns="http://www.w3.org/2000/svg" xmlns:xlink="http://www.w3.org/1999/xlink">
    <!-- Generator: Sketch 40.3 (33839) - http://www.bohemiancoding.com/sketch -->
    <title>CTA Emoji</title>
    <desc>Created with Sketch.</desc>
    <defs></defs>
    <g id="Symbols" stroke="none" stroke-width="1" fill="none" fill-rule="evenodd">
        <g id="cta" transform="translate(-182.000000, -5.000000)">
            <g id="CTA-Emoji">
                <g transform="translate(177.000000, 0.000000)">
                    <g id="Emojis/Pizza" transform="translate(5.000000, 5.000000)">
                        <g id="1f355">
                            <g id="Group">
                                <path d="M60.3,45.1 C60.2,20.7 39.5,0.1 15.1,0 L0.3,60 L60.3,45.1" id="Shape" fill="#F6DA77"></path>
                                <path d="M52.5,47 L54.6,46.6 C53.6,27.6 40,7.7 13.6,5.7 L13.3,7.7 C33.5,10.3 50,26.7 52.5,47" id="Shape" fill="#860D16"></path>
                                <path d="M54.5,46.6 L60.2,45.2 C60.3,20.8 39.5,0 14.9,0 L13.5,5.7 C37,7.9 52.3,23.3 54.5,46.6 L54.5,46.6 Z" id="Shape" fill="#C98E52"></path>
                                <g transform="translate(6.000000, 18.000000)" id="Shape" fill="#83BF4F">
                                    <path d="M5.5,21.7 C3.8,21.7 2.3,21.1 1.1,19.9 C0.6,19.4 0.6,18.6 1.1,18.2 C1.6,17.7 2.4,17.7 2.8,18.2 C4.2,19.6 6.7,19.6 8.1,18.2 C8.8,17.5 9.2,16.6 9.2,15.6 C9.2,14.6 8.8,13.7 8.1,13 C7.6,12.5 7.6,11.7 8.1,11.3 C8.6,10.8 9.4,10.8 9.8,11.3 C11,12.5 11.6,14 11.6,15.7 C11.6,17.4 11,18.9 9.8,20.1 C8.7,21 7.1,21.7 5.5,21.7"></path>
                                    <path d="M30.6,1.9 L30.6,2.4 C30.5,2.7 30.4,2.9 30.1,3.1 C29.8,3.3 29.5,3.3 29.3,3.2 C28.5,3 27.7,3.2 27,3.6 C26.3,4 25.8,4.7 25.6,5.5 C25.2,7.1 26.3,8.8 27.9,9.2 C28.5,9.3 28.9,10 28.7,10.5 C28.6,11.1 28,11.5 27.4,11.3 C25.4,10.8 23.9,9.3 23.4,7.3 C23.2,6.5 23.2,5.7 23.4,5 C23.7,3.6 24.6,2.5 25.8,1.7 C27,0.9 28.4,0.7 29.8,1 C30.1,1.2 30.5,1.5 30.6,1.9"></path>
                                    <path d="M35.9,30.9 L35.4,30.9 C35.1,30.8 34.9,30.7 34.8,30.4 C34.7,30.2 34.6,29.9 34.7,29.6 C34.9,28.9 34.8,28.1 34.4,27.4 C34,26.7 33.4,26.2 32.6,26 C31.1,25.6 29.4,26.6 29,28 C28.9,28.5 28.2,28.9 27.7,28.7 C27.1,28.5 26.8,28 27,27.4 C27.5,25.6 29,24.1 30.9,23.8 C31.6,23.7 32.4,23.7 33.1,23.9 C34.4,24.2 35.5,25.1 36.1,26.2 C36.8,27.4 36.9,28.7 36.6,30 C36.6,30.5 36.3,30.8 35.9,30.9"></path>
                                </g>
                                <g transform="translate(4.000000, 12.000000)" id="Shape" fill="#B21725">
                                    <path d="M31.1,22.2 C32.5,26.3 30.3,30.7 26.1,32.1 C21.9,33.5 17.4,31.3 16.1,27.2 C14.7,23.1 16.9,18.7 21.1,17.3 C25.2,15.9 29.7,18.1 31.1,22.2"></path>
                                    <path d="M43.6,23 C44.4,25.5 43.1,28.1 40.6,29 C38.1,29.8 35.4,28.5 34.6,26 C33.8,23.5 35.1,20.9 37.6,20 C40,19.2 42.7,20.5 43.6,23"></path>
                                    <path d="M23,5 C24.1,8.3 22.3,12 18.9,13.1 C15.5,14.2 11.8,12.4 10.7,9.1 C9.6,5.8 11.4,2.1 14.8,1 C18.2,-0.1 21.9,1.7 23,5"></path>
                                    <path d="M28.4,40 L18.7,42.4 C17.8,39.8 19.6,36.7 22.2,36 C25.4,35.2 27.5,37.5 28.4,40"></path>
                                    <path d="M13.6,33 C14.8,36.4 12.9,40.2 9.4,41.3 C5.9,42.5 2.1,40.6 0.9,37.1 C-0.3,33.7 1.6,29.9 5.1,28.8 C8.6,27.7 12.4,29.6 13.6,33"></path>
                                </g>
                                <path d="M13.5,5.7 C18.8,5.8 24.1,6.8 29.1,8.8 C34.1,10.7 38.8,13.7 42.6,17.6 C46.4,21.4 49.4,26.1 51.4,31.1 C53.4,36.1 54.4,41.4 54.5,46.7 C53.6,41.5 52.2,36.4 50,31.7 C47.8,27 44.9,22.6 41.2,19 C37.6,15.3 33.2,12.4 28.5,10.3 C23.8,8 18.7,6.6 13.5,5.7" id="Shape" fill="#E0A763"></path>
                                <g transform="translate(2.000000, 9.000000)" id="Shape" fill="#FFAB41">
                                    <polygon transform="translate(14.774020, 2.436160) rotate(-45.000000) translate(-14.774020, -2.436160) " points="13.3740334 1.03617343 16.1740066 1.03617343 16.1740066 3.83614657 13.3740334 3.83614657"></polygon>
                                    <polygon transform="translate(27.699270, 8.043530) rotate(-45.000000) translate(-27.699270, -8.043530) " points="26.2992834 6.64354343 29.0992566 6.64354343 29.0992566 9.44351657 26.2992834 9.44351657"></polygon>
                                    <polygon transform="translate(10.887430, 15.448450) rotate(-45.000000) translate(-10.887430, -15.448450) " points="9.48744343 14.0484634 12.2874166 14.0484634 12.2874166 16.8484366 9.48744343 16.8484366"></polygon>
                                    <polygon transform="translate(17.727680, 21.135240) rotate(-45.000000) translate(-17.727680, -21.135240) " points="16.3276934 19.7352534 19.1276666 19.7352534 19.1276666 22.5352266 16.3276934 22.5352266"></polygon>
                                    <polygon transform="translate(35.524590, 21.390790) rotate(-45.000000) translate(-35.524590, -21.390790) " points="34.1246034 19.9908034 36.9245766 19.9908034 36.9245766 22.7907766 34.1246034 22.7907766"></polygon>
                                    <polygon transform="translate(47.003550, 35.541450) rotate(-45.000000) translate(-47.003550, -35.541450) " points="45.6035634 34.1414634 48.4035366 34.1414634 48.4035366 36.9414366 45.6035634 36.9414366"></polygon>
                                    <polygon transform="translate(17.597220, 33.651900) rotate(-45.000000) translate(-17.597220, -33.651900) " points="16.1972334 32.2519134 18.9972066 32.2519134 18.9972066 35.0518866 16.1972334 35.0518866"></polygon>
                                    <polygon transform="translate(19.013590, 40.902690) rotate(-45.000000) translate(-19.013590, -40.902690) " points="17.6136034 39.5027034 20.4135766 39.5027034 20.4135766 42.3026766 17.6136034 42.3026766"></polygon>
                                    <polygon transform="translate(2.317950, 47.241190) rotate(-45.000000) translate(-2.317950, -47.241190) " points="0.917963426 45.8412034 3.71793657 45.8412034 3.71793657 48.6411766 0.917963426 48.6411766"></polygon>
                                    <polygon transform="translate(11.455180, 6.327790) rotate(-45.000000) translate(-11.455180, -6.327790) " points="10.4051901 5.27780007 12.5051699 5.27780007 12.5051699 7.37777993 10.4051901 7.37777993"></polygon>
                                    <polygon transform="translate(24.037090, 16.893280) rotate(-45.000000) translate(-24.037090, -16.893280) " points="22.9871001 15.8432901 25.0870799 15.8432901 25.0870799 17.9432699 22.9871001 17.9432699"></polygon>
                                    <polygon transform="translate(37.560150, 16.954840) rotate(-45.000000) translate(-37.560150, -16.954840) " points="36.5101601 15.9048501 38.6101399 15.9048501 38.6101399 18.0048299 36.5101601 18.0048299"></polygon>
                                    <polygon transform="translate(10.920810, 25.163820) rotate(-45.000000) translate(-10.920810, -25.163820) " points="9.87082007 24.1138301 11.9707999 24.1138301 11.9707999 26.2138099 9.87082007 26.2138099"></polygon>
                                    <polygon transform="translate(4.845190, 31.099420) rotate(-45.000000) translate(-4.845190, -31.099420) " points="3.79520007 30.0494301 5.89517993 30.0494301 5.89517993 32.1494099 3.79520007 32.1494099"></polygon>
                                    <polygon transform="translate(2.515200, 43.485390) rotate(-45.000000) translate(-2.515200, -43.485390) " points="1.46521007 42.4354001 3.56518993 42.4354001 3.56518993 44.5353799 1.46521007 44.5353799"></polygon>
                                    <polygon transform="translate(15.361170, 44.286350) rotate(-44.991897) translate(-15.361170, -44.286350) " points="14.3111801 43.2363601 16.4111599 43.2363601 16.4111599 45.3363399 14.3111801 45.3363399"></polygon>
                                    <polygon transform="translate(28.262760, 37.345810) rotate(-45.000000) translate(-28.262760, -37.345810) " points="27.2127701 36.2958201 29.3127499 36.2958201 29.3127499 38.3957999 27.2127701 38.3957999"></polygon>
                                    <polygon transform="translate(34.527240, 39.895530) rotate(-45.000000) translate(-34.527240, -39.895530) " points="33.4772501 38.8455401 35.5772299 38.8455401 35.5772299 40.9455199 33.4772501 40.9455199"></polygon>
                                    <polygon transform="translate(42.861400, 34.170730) rotate(-45.000000) translate(-42.861400, -34.170730) " points="41.8114101 33.1207401 43.9113899 33.1207401 43.9113899 35.2207199 41.8114101 35.2207199"></polygon>
                                </g>
                            </g>
                        </g>
                    </g>
                </g>
            </g>
        </g>
    </g>
</svg>